<?xml version="1.0" encoding="utf-8" ?>
<svg xmlns="http://www.w3.org/2000/svg" xmlns:ev="http://www.w3.org/2001/xml-events" xmlns:xlink="http://www.w3.org/1999/xlink" baseProfile="full" height="8in" version="1.1" viewBox="0,0,400,400" width="8in">
  <defs/>
  <circle cx="200" cy="360" fill="none" r="67" stroke="black"/>
  <circle cx="260" cy="340" fill="none" r="94" stroke="black"/>
  <circle cx="160" cy="360" fill="none" r="39" stroke="black"/>
  <circle cx="240" cy="400" fill="none" r="97" stroke="black"/>
  <circle cx="160" cy="200" fill="none" r="9" stroke="black"/>
  <circle cx="280" cy="320" fill="none" r="85" stroke="black"/>
  <circle cx="160" cy="400" fill="none" r="49" stroke="black"/>
  <circle cx="140" cy="180" fill="none" r="10" stroke="black"/>
  <circle cx="120" cy="400" fill="none" r="47" stroke="black"/>
  <circle cx="220" cy="380" fill="none" r="96" stroke="black"/>
  <circle cx="260" cy="380" fill="none" r="80" stroke="black"/>
  <circle cx="100" cy="380" fill="none" r="44" stroke="black"/>
  <circle cx="160" cy="400" fill="none" r="63" stroke="black"/>
  <circle cx="140" cy="380" fill="none" r="46" stroke="black"/>
  <circle cx="160" cy="200" fill="none" r="11" stroke="black"/>
  <circle cx="180" cy="340" fill="none" r="70" stroke="black"/>
  <circle cx="180" cy="180" fill="none" r="8" stroke="black"/>
  <circle cx="160" cy="200" fill="none" r="19" stroke="black"/>
  <circle cx="280" cy="360" fill="none" r="101" stroke="black"/>
  <circle cx="120" cy="400" fill="none" r="45" stroke="black"/>
  <circle cx="180" cy="420" fill="none" r="60" stroke="black"/>
  <circle cx="80" cy="280" fill="none" r="25" stroke="black"/>
  <circle cx="260" cy="420" fill="none" r="98" stroke="black"/>
  <circle cx="240" cy="360" fill="none" r="79" stroke="black"/>
  <circle cx="200" cy="360" fill="none" r="71" stroke="black"/>
  <circle cx="240" cy="320" fill="none" r="91" stroke="black"/>
  <circle cx="120" cy="240" fill="none" r="21" stroke="black"/>
  <circle cx="260" cy="300" fill="none" r="90" stroke="black"/>
  <circle cx="160" cy="440" fill="none" r="59" stroke="black"/>
  <circle cx="140" cy="220" fill="none" r="20" stroke="black"/>
  <circle cx="160" cy="360" fill="none" r="65" stroke="black"/>
  <circle cx="180" cy="420" fill="none" r="50" stroke="black"/>
  <circle cx="100" cy="260" fill="none" r="24" stroke="black"/>
  <circle cx="180" cy="340" fill="none" r="38" stroke="black"/>
  <circle cx="180" cy="420" fill="none" r="56" stroke="black"/>
  <circle cx="180" cy="380" fill="none" r="36" stroke="black"/>
  <circle cx="80" cy="400" fill="none" r="43" stroke="black"/>
  <circle cx="140" cy="380" fill="none" r="48" stroke="black"/>
  <circle cx="180" cy="260" fill="none" r="14" stroke="black"/>
  <circle cx="200" cy="400" fill="none" r="57" stroke="black"/>
  <circle cx="80" cy="240" fill="none" r="23" stroke="black"/>
  <circle cx="200" cy="160" fill="none" r="7" stroke="black"/>
  <circle cx="200" cy="360" fill="none" r="35" stroke="black"/>
  <circle cx="280" cy="360" fill="none" r="93" stroke="black"/>
  <circle cx="260" cy="340" fill="none" r="84" stroke="black"/>
  <circle cx="240" cy="320" fill="none" r="75" stroke="black"/>
  <circle cx="240" cy="360" fill="none" r="81" stroke="black"/>
  <circle cx="260" cy="380" fill="none" r="82" stroke="black"/>
  <circle cx="140" cy="340" fill="none" r="32" stroke="black"/>
  <circle cx="140" cy="220" fill="none" r="18" stroke="black"/>
  <circle cx="100" cy="300" fill="none" r="28" stroke="black"/>
  <circle cx="220" cy="180" fill="none" r="6" stroke="black"/>
  <circle cx="260" cy="340" fill="none" r="92" stroke="black"/>
  <circle cx="160" cy="360" fill="none" r="69" stroke="black"/>
  <circle cx="200" cy="400" fill="none" r="55" stroke="black"/>
  <circle cx="260" cy="340" fill="none" r="74" stroke="black"/>
  <circle cx="120" cy="320" fill="none" r="29" stroke="black"/>
  <circle cx="100" cy="300" fill="none" r="26" stroke="black"/>
  <circle cx="200" cy="200" fill="none" r="5" stroke="black"/>
  <circle cx="220" cy="340" fill="none" r="72" stroke="black"/>
  <circle cx="240" cy="360" fill="none" r="73" stroke="black"/>
  <circle cx="240" cy="320" fill="none" r="77" stroke="black"/>
  <circle cx="160" cy="360" fill="none" r="37" stroke="black"/>
  <circle cx="220" cy="340" fill="none" r="76" stroke="black"/>
  <circle cx="100" cy="340" fill="none" r="30" stroke="black"/>
  <circle cx="180" cy="340" fill="none" r="68" stroke="black"/>
  <circle cx="280" cy="320" fill="none" r="87" stroke="black"/>
  <circle cx="180" cy="380" fill="none" r="54" stroke="black"/>
  <circle cx="120" cy="360" fill="none" r="31" stroke="black"/>
  <circle cx="180" cy="220" fill="none" r="12" stroke="black"/>
  <circle cx="220" cy="220" fill="none" r="2" stroke="black"/>
  <circle cx="100" cy="220" fill="none" r="22" stroke="black"/>
  <circle cx="180" cy="340" fill="none" r="34" stroke="black"/>
  <circle cx="180" cy="380" fill="none" r="64" stroke="black"/>
  <circle cx="180" cy="260" fill="none" r="16" stroke="black"/>
  <circle cx="100" cy="380" fill="none" r="42" stroke="black"/>
  <circle cx="300" cy="340" fill="none" r="86" stroke="black"/>
  <circle cx="180" cy="340" fill="none" r="66" stroke="black"/>
  <circle cx="80" cy="280" fill="none" r="27" stroke="black"/>
  <circle cx="180" cy="420" fill="none" r="62" stroke="black"/>
  <circle cx="240" cy="200" fill="none" r="3" stroke="black"/>
  <circle cx="160" cy="320" fill="none" r="33" stroke="black"/>
  <circle cx="160" cy="400" fill="none" r="61" stroke="black"/>
  <circle cx="160" cy="240" fill="none" r="17" stroke="black"/>
  <circle cx="160" cy="240" fill="none" r="13" stroke="black"/>
  <circle cx="240" cy="280" fill="none" r="89" stroke="black"/>
  <circle cx="240" cy="360" fill="none" r="95" stroke="black"/>
  <circle cx="240" cy="360" fill="none" r="83" stroke="black"/>
  <circle cx="120" cy="400" fill="none" r="41" stroke="black"/>
  <circle cx="180" cy="420" fill="none" r="52" stroke="black"/>
  <circle cx="140" cy="380" fill="none" r="40" stroke="black"/>
  <circle cx="200" cy="400" fill="none" r="51" stroke="black"/>
  <circle cx="220" cy="180" fill="none" r="4" stroke="black"/>
  <circle cx="200" cy="240" fill="none" r="15" stroke="black"/>
  <circle cx="260" cy="300" fill="none" r="88" stroke="black"/>
  <circle cx="160" cy="400" fill="none" r="53" stroke="black"/>
  <circle cx="180" cy="420" fill="none" r="58" stroke="black"/>
  <circle cx="280" cy="400" fill="none" r="99" stroke="black"/>
  <circle cx="220" cy="340" fill="none" r="78" stroke="black"/>
  <circle cx="260" cy="380" fill="none" r="100" stroke="black"/>
  <circle cx="200" cy="200" fill="none" r="1" stroke="black"/>
</svg>
